# xmcd
#
# Track frame offsets:
#	150
#	15513
#	30100
#	46813
#	64388
#	79163
#	95650
#	112900
#	125350
#	143140
#	161610
#	173972
#	192632
#	207634
#	226372
#
# Disc length: 3244 seconds
#
# Revision: 1
# Processed by: cddbd v1.5.2PL0 Copyright (c) Steve Scherf et al.
# Submitted via: audiograbber 1.83.01
#
DISCID=c90caa0f
DTITLE=Landers, Audrey - Midnight Magic
DYEAR=2011
DGENRE=Country
TTITLE0=Farewell
TTITLE1=Santo Domingo
TTITLE2=On The Beach Of Montego Bay
TTITLE3=San Francisco
TTITLE4=Haiti Cherie
TTITLE5=Santa California
TTITLE6=Chinatown Is In New York
TTITLE7=Once ON A Sunday Morning
TTITLE8=Hey Sam
TTITLE9=Banks Of The Ohio
TTITLE10=Tennessee Waltz
TTITLE11=Give Me Back My Heart
TTITLE12=Dreamer
TTITLE13=Midnight Magic
TTITLE14=Tennessee Nights (Mama Chiquita)
EXTD=
EXTT0=
EXTT1=
EXTT2=
EXTT3=
EXTT4=
EXTT5=
EXTT6=
EXTT7=
EXTT8=
EXTT9=
EXTT10=
EXTT11=
EXTT12=
EXTT13=
EXTT14=
PLAYORDER=
